<svg width="56" height="56" viewBox="0 0 56 56" fill="none" xmlns="http://www.w3.org/2000/svg">
<rect width="56" height="56" rx="12" fill="#FF1843" fill-opacity="0.1"/>
<mask id="mask0_1570_7776" style="mask-type:alpha" maskUnits="userSpaceOnUse" x="19" y="19" width="18" height="18">
<path fill-rule="evenodd" clip-rule="evenodd" d="M21 19H35C36.1 19 37 19.9 37 21V35C37 36.1 36.1 37 35 37H21C19.9 37 19 36.1 19 35V32C19 31.45 19.45 31 20 31C20.55 31 21 31.45 21 32V34C21 34.55 21.45 35 22 35H34C34.55 35 35 34.55 35 34V22C35 21.45 34.55 21 34 21H22C21.45 21 21 21.45 21 22V24C21 24.55 20.55 25 20 25C19.45 25 19 24.55 19 24V21C19 19.9 19.89 19 21 19ZM31.79 28.7L28.2 32.29C27.81 32.68 27.18 32.68 26.79 32.29C26.41 31.91 26.4 31.27 26.79 30.88L28.67 29H20C19.45 29 19 28.55 19 28C19 27.45 19.45 27 20 27H28.67L26.79 25.11C26.4 24.72 26.4 24.09 26.79 23.7C26.9768 23.5127 27.2305 23.4075 27.495 23.4075C27.7595 23.4075 28.0132 23.5127 28.2 23.7L31.79 27.29C32.18 27.68 32.18 28.31 31.79 28.7Z" fill="black"/>
</mask>
<g mask="url(#mask0_1570_7776)">
<rect x="16" y="16" width="24" height="24" fill="#FF1843"/>
</g>
</svg>
