<svg width="24" height="25" viewBox="0 0 24 25" fill="none" xmlns="http://www.w3.org/2000/svg">
<g id="codicon:game">
<g id="Group">
<path id="Vector" fill-rule="evenodd" clip-rule="evenodd" d="M6 5H18C19.5913 5 21.1174 5.63214 22.2426 6.75736C23.3679 7.88258 24 9.4087 24 11V15.5C24 17.0913 23.3679 18.6174 22.2426 19.7426C21.1174 20.8679 19.5913 21.5 18 21.5H6C4.4087 21.5 2.88258 20.8679 1.75736 19.7426C0.632141 18.6174 0 17.0913 0 15.5V11C0 9.4087 0.632141 7.88258 1.75736 6.75736C2.88258 5.63214 4.4087 5 6 5ZM6 6.5C4.80653 6.5 3.66193 6.97411 2.81802 7.81802C1.97411 8.66193 1.5 9.80653 1.5 11V15.5C1.5 16.6935 1.97411 17.8381 2.81802 18.682C3.66193 19.5259 4.80653 20 6 20H18C19.1935 20 20.3381 19.5259 21.182 18.682C22.0259 17.8381 22.5 16.6935 22.5 15.5V11C22.5 9.80653 22.0259 8.66193 21.182 7.81802C20.3381 6.97411 19.1935 6.5 18 6.5H6Z" fill="black"/>
<path id="Vector_2" d="M8.25 9.5C8.05109 9.5 7.86032 9.57902 7.71967 9.71967C7.57902 9.86032 7.5 10.0511 7.5 10.25V12.5H5.25C5.05109 12.5 4.86032 12.579 4.71967 12.7197C4.57902 12.8603 4.5 13.0511 4.5 13.25C4.5 13.4489 4.57902 13.6397 4.71967 13.7803C4.86032 13.921 5.05109 14 5.25 14H7.5V16.25C7.5 16.4489 7.57902 16.6397 7.71967 16.7803C7.86032 16.921 8.05109 17 8.25 17C8.44891 17 8.63968 16.921 8.78033 16.7803C8.92098 16.6397 9 16.4489 9 16.25V14H11.25C11.4489 14 11.6397 13.921 11.7803 13.7803C11.921 13.6397 12 13.4489 12 13.25C12 13.0511 11.921 12.8603 11.7803 12.7197C11.6397 12.579 11.4489 12.5 11.25 12.5H9V10.25C9 10.0511 8.92098 9.86032 8.78033 9.71967C8.63968 9.57902 8.44891 9.5 8.25 9.5ZM19.5 11C19.5 11.3978 19.342 11.7794 19.0607 12.0607C18.7794 12.342 18.3978 12.5 18 12.5C17.6022 12.5 17.2206 12.342 16.9393 12.0607C16.658 11.7794 16.5 11.3978 16.5 11C16.5 10.6022 16.658 10.2206 16.9393 9.93934C17.2206 9.65804 17.6022 9.5 18 9.5C18.3978 9.5 18.7794 9.65804 19.0607 9.93934C19.342 10.2206 19.5 10.6022 19.5 11ZM18 15.5C18 15.8978 17.842 16.2794 17.5607 16.5607C17.2794 16.842 16.8978 17 16.5 17C16.1022 17 15.7206 16.842 15.4393 16.5607C15.158 16.2794 15 15.8978 15 15.5C15 15.1022 15.158 14.7206 15.4393 14.4393C15.7206 14.158 16.1022 14 16.5 14C16.8978 14 17.2794 14.158 17.5607 14.4393C17.842 14.7206 18 15.1022 18 15.5Z" fill="black"/>
</g>
</g>
</svg>
