<svg width="80" height="80" viewBox="0 0 80 80" fill="none" xmlns="http://www.w3.org/2000/svg">
<g id="fluent:games-48-filled">
<path id="Vector" d="M29.9993 16.668C17.1127 16.668 6.66602 27.1146 6.66602 40.0013C6.66602 52.888 17.1127 63.3346 29.9993 63.3346H49.9993C62.886 63.3346 73.3327 52.888 73.3327 40.0013C73.3327 27.1146 62.886 16.668 49.9993 16.668H29.9993ZM27.0827 30.0013C28.2327 30.0013 29.166 30.9346 29.166 32.0846V38.3346H34.5827C35.1352 38.3346 35.6651 38.5541 36.0558 38.9448C36.4465 39.3355 36.666 39.8654 36.666 40.418C36.666 40.9705 36.4465 41.5004 36.0558 41.8911C35.6651 42.2818 35.1352 42.5013 34.5827 42.5013H29.166V47.918C29.166 48.4705 28.9465 49.0004 28.5558 49.3911C28.1651 49.7818 27.6352 50.0013 27.0827 50.0013C26.5301 50.0013 26.0002 49.7818 25.6095 49.3911C25.2188 49.0004 24.9993 48.4705 24.9993 47.918V42.5013H18.7493C18.1968 42.5013 17.6669 42.2818 17.2762 41.8911C16.8855 41.5004 16.666 40.9705 16.666 40.418C16.666 39.8654 16.8855 39.3355 17.2762 38.9448C17.6669 38.5541 18.1968 38.3346 18.7493 38.3346H24.9993V32.0846C24.9993 30.9346 25.9327 30.0013 27.0827 30.0013ZM53.3327 45.8346C53.3327 46.9397 52.8937 47.9995 52.1123 48.7809C51.3309 49.5623 50.2711 50.0013 49.166 50.0013C48.0609 50.0013 47.0011 49.5623 46.2197 48.7809C45.4383 47.9995 44.9993 46.9397 44.9993 45.8346C44.9993 44.7296 45.4383 43.6698 46.2197 42.8884C47.0011 42.107 48.0609 41.668 49.166 41.668C50.2711 41.668 51.3309 42.107 52.1123 42.8884C52.8937 43.6698 53.3327 44.7296 53.3327 45.8346ZM55.8327 38.3346C54.7276 38.3346 53.6678 37.8956 52.8864 37.1142C52.105 36.3328 51.666 35.273 51.666 34.168C51.666 33.0629 52.105 32.0031 52.8864 31.2217C53.6678 30.4403 54.7276 30.0013 55.8327 30.0013C56.9377 30.0013 57.9976 30.4403 58.779 31.2217C59.5604 32.0031 59.9993 33.0629 59.9993 34.168C59.9993 35.273 59.5604 36.3328 58.779 37.1142C57.9976 37.8956 56.9377 38.3346 55.8327 38.3346Z" fill="url(#paint0_linear_1568_4438)"/>
</g>
<defs>
<linearGradient id="paint0_linear_1568_4438" x1="39.9993" y1="16.668" x2="39.9993" y2="63.3346" gradientUnits="userSpaceOnUse">
<stop stop-color="#BD3193"/>
<stop offset="1" stop-color="#9FCC3B"/>
</linearGradient>
</defs>
</svg>
