<svg width="24" height="25" viewBox="0 0 24 25" fill="none" xmlns="http://www.w3.org/2000/svg">
<g id="fluent:clipboard-number-123-20-regular">
<path id="Vector" d="M10.1998 2.89844C9.82741 2.89824 9.46413 3.01355 9.16002 3.22847C8.8559 3.44339 8.62594 3.74734 8.5018 4.09844H6.5998C6.12242 4.09844 5.66458 4.28808 5.32701 4.62565C4.98945 4.96321 4.7998 5.42105 4.7998 5.89844V20.2984C4.7998 20.7758 4.98945 21.2337 5.32701 21.5712C5.66458 21.9088 6.12242 22.0984 6.5998 22.0984H8.5018C8.43399 21.9057 8.3995 21.7028 8.3998 21.4984V20.8984H6.5998C6.44067 20.8984 6.28806 20.8352 6.17554 20.7227C6.06302 20.6102 5.9998 20.4576 5.9998 20.2984V5.89844C5.9998 5.73931 6.06302 5.5867 6.17554 5.47417C6.28806 5.36165 6.44067 5.29844 6.5998 5.29844H8.5018C8.62594 5.64953 8.8559 5.95348 9.16002 6.1684C9.46413 6.38332 9.82741 6.49863 10.1998 6.49844H13.7998C14.1722 6.49863 14.5355 6.38332 14.8396 6.1684C15.1437 5.95348 15.3737 5.64953 15.4978 5.29844H17.3998C17.5589 5.29844 17.7115 5.36165 17.8241 5.47417C17.9366 5.5867 17.9998 5.73931 17.9998 5.89844V14.542C18.3636 14.2672 18.7686 14.0518 19.1998 13.9036V5.89844C19.1998 5.42105 19.0102 4.96321 18.6726 4.62565C18.335 4.28808 17.8772 4.09844 17.3998 4.09844H15.4978C15.3737 3.74734 15.1437 3.44339 14.8396 3.22847C14.5355 3.01355 14.1722 2.89824 13.7998 2.89844H10.1998ZM9.5998 4.69844C9.5998 4.53931 9.66302 4.3867 9.77554 4.27417C9.88806 4.16165 10.0407 4.09844 10.1998 4.09844H13.7998C13.9589 4.09844 14.1115 4.16165 14.2241 4.27417C14.3366 4.3867 14.3998 4.53931 14.3998 4.69844C14.3998 4.85757 14.3366 5.01018 14.2241 5.1227C14.1115 5.23522 13.9589 5.29844 13.7998 5.29844H10.1998C10.0407 5.29844 9.88806 5.23522 9.77554 5.1227C9.66302 5.01018 9.5998 4.85757 9.5998 4.69844ZM12.0046 21.5608V21.5572L12.0034 21.5512L12.0022 21.538C11.9996 21.4965 11.9992 21.4548 12.001 21.4132C12.0026 21.3412 12.0142 21.2512 12.0358 21.1432C12.0802 20.9248 12.175 20.6428 12.3682 20.3152C12.7546 19.6624 13.5166 18.85 15.001 17.9956C15.4486 17.7376 15.5746 17.4448 15.589 17.2204C15.6058 16.9696 15.493 16.6816 15.2506 16.45C15.1269 16.3314 14.9803 16.2392 14.8198 16.1792C14.6593 16.1192 14.4882 16.0925 14.317 16.1008C13.963 16.1188 13.5142 16.2952 13.0522 16.8232C13.0014 16.8861 12.9385 16.938 12.8672 16.9759C12.7959 17.0138 12.7176 17.0369 12.6372 17.0439C12.5567 17.0508 12.4756 17.0415 12.3989 17.0163C12.3221 16.9912 12.2512 16.9508 12.1904 16.8977C12.1297 16.8445 12.0802 16.7796 12.0451 16.7068C12.01 16.6341 11.99 16.555 11.9862 16.4743C11.9824 16.3936 11.9949 16.313 12.0231 16.2373C12.0512 16.1616 12.0943 16.0923 12.1498 16.0336C12.787 15.304 13.5226 14.9416 14.2522 14.902C14.5871 14.8849 14.922 14.9364 15.2363 15.0534C15.5506 15.1704 15.8376 15.3504 16.0798 15.5824C16.5334 16.0168 16.8298 16.636 16.7878 17.2984C16.7422 17.986 16.3378 18.61 15.5998 19.0348C14.2702 19.8016 13.6798 20.4688 13.417 20.8996H16.201C16.3601 20.8996 16.5127 20.9629 16.6253 21.0754C16.7378 21.1879 16.801 21.3405 16.801 21.4996C16.801 21.6588 16.7378 21.8114 16.6253 21.9239C16.5127 22.0364 16.3601 22.0996 16.201 22.0996H12.601C12.4527 22.0996 12.3098 22.0446 12.1996 21.9453C12.0895 21.846 12.02 21.7083 12.0046 21.5608ZM19.045 16.8244C19.5454 16.2688 20.0458 16.0984 20.4418 16.0984C20.8522 16.0984 21.2026 16.282 21.4078 16.5196C21.6118 16.7572 21.6382 16.9936 21.5554 17.1772C21.463 17.3788 21.1522 17.7124 20.2666 17.914C20.134 17.9442 20.0157 18.0186 19.9309 18.1249C19.8461 18.2312 19.7999 18.3631 19.7999 18.499C19.7999 18.635 19.8461 18.7669 19.9309 18.8732C20.0157 18.9795 20.134 19.0538 20.2666 19.084C21.151 19.2856 21.463 19.618 21.5554 19.8208C21.6394 20.0056 21.6118 20.242 21.4078 20.4796C21.2026 20.7172 20.8522 20.8996 20.4418 20.8996C20.0458 20.8996 19.5466 20.7292 19.0462 20.1724C18.9397 20.054 18.7906 19.9828 18.6316 19.9744C18.4726 19.9659 18.3168 20.021 18.1984 20.1274C18.08 20.2339 18.0088 20.383 18.0003 20.542C17.9919 20.701 18.0469 20.8568 18.1534 20.9752C18.853 21.7528 19.6654 22.1008 20.4418 22.1008C21.2026 22.1008 21.8854 21.7648 22.3174 21.2608C22.7506 20.7568 22.9678 20.0308 22.6474 19.3252C22.4906 18.9906 22.2459 18.7048 21.9394 18.4984C22.265 18.2704 22.501 17.9952 22.6474 17.6728C22.9678 16.9684 22.7506 16.2412 22.3174 15.7372C22.0827 15.4717 21.7939 15.2595 21.4704 15.1148C21.1469 14.9702 20.7962 14.8964 20.4418 14.8984C19.6666 14.8984 18.853 15.2452 18.1546 16.0216C18.0561 16.1409 18.0075 16.2935 18.0188 16.4477C18.0301 16.6019 18.1006 16.7458 18.2154 16.8494C18.3303 16.9529 18.4807 17.0081 18.6352 17.0035C18.7898 16.9988 18.9366 16.9347 19.045 16.8244ZM10.7998 15.6148C10.7998 15.376 10.6798 15.1972 10.5574 15.0904C10.4552 15.0033 10.3319 14.9446 10.1998 14.92C10.039 14.89 9.5998 14.884 9.397 15.3028C9.157 15.7984 8.7442 16.42 8.1082 16.774C8.03934 16.8123 7.97869 16.8638 7.92972 16.9255C7.88075 16.9873 7.84442 17.0581 7.82281 17.1338C7.80119 17.2096 7.79471 17.2889 7.80373 17.3672C7.81276 17.4454 7.83711 17.5212 7.87541 17.59C7.9137 17.6589 7.96518 17.7196 8.02691 17.7685C8.08864 17.8175 8.15942 17.8538 8.23519 17.8754C8.31096 17.8971 8.39025 17.9035 8.46853 17.8945C8.54681 17.8855 8.62254 17.8611 8.6914 17.8228C9.02824 17.6331 9.33449 17.3936 9.5998 17.1124V21.4984C9.5998 21.6576 9.66302 21.8102 9.77554 21.9227C9.88806 22.0352 10.0407 22.0984 10.1998 22.0984C10.3589 22.0984 10.5115 22.0352 10.6241 21.9227C10.7366 21.8102 10.7998 21.6576 10.7998 21.4984V15.6148Z" fill="black"/>
</g>
</svg>
