<svg width="24" height="25" viewBox="0 0 24 25" fill="none" xmlns="http://www.w3.org/2000/svg">
<g id="fluent:text-description-16-regular">
<path id="Vector" d="M2.25 5C2.05109 5 1.86032 5.07902 1.71967 5.21967C1.57902 5.36032 1.5 5.55109 1.5 5.75C1.5 5.94891 1.57902 6.13968 1.71967 6.28033C1.86032 6.42098 2.05109 6.5 2.25 6.5H21.75C21.9489 6.5 22.1397 6.42098 22.2803 6.28033C22.421 6.13968 22.5 5.94891 22.5 5.75C22.5 5.55109 22.421 5.36032 22.2803 5.21967C22.1397 5.07902 21.9489 5 21.75 5H2.25ZM2.25 9.5C2.05109 9.5 1.86032 9.57902 1.71967 9.71967C1.57902 9.86032 1.5 10.0511 1.5 10.25C1.5 10.4489 1.57902 10.6397 1.71967 10.7803C1.86032 10.921 2.05109 11 2.25 11H21.75C21.9489 11 22.1397 10.921 22.2803 10.7803C22.421 10.6397 22.5 10.4489 22.5 10.25C22.5 10.0511 22.421 9.86032 22.2803 9.71967C22.1397 9.57902 21.9489 9.5 21.75 9.5H2.25ZM1.5 14.75C1.5 14.5511 1.57902 14.3603 1.71967 14.2197C1.86032 14.079 2.05109 14 2.25 14H21.75C21.9489 14 22.1397 14.079 22.2803 14.2197C22.421 14.3603 22.5 14.5511 22.5 14.75C22.5 14.9489 22.421 15.1397 22.2803 15.2803C22.1397 15.421 21.9489 15.5 21.75 15.5H2.25C2.05109 15.5 1.86032 15.421 1.71967 15.2803C1.57902 15.1397 1.5 14.9489 1.5 14.75ZM2.25 18.5C2.05109 18.5 1.86032 18.579 1.71967 18.7197C1.57902 18.8603 1.5 19.0511 1.5 19.25C1.5 19.4489 1.57902 19.6397 1.71967 19.7803C1.86032 19.921 2.05109 20 2.25 20H15.75C15.9489 20 16.1397 19.921 16.2803 19.7803C16.421 19.6397 16.5 19.4489 16.5 19.25C16.5 19.0511 16.421 18.8603 16.2803 18.7197C16.1397 18.579 15.9489 18.5 15.75 18.5H2.25Z" fill="black"/>
</g>
</svg>
