<svg width="80" height="80" viewBox="0 0 80 80" fill="none" xmlns="http://www.w3.org/2000/svg">
<g id="material-symbols-light:box-add-sharp">
<path id="Vector" d="M13.333 66.6654V23.052L21.3863 13.332H58.553L66.6663 23.1787V37.6954C66.2086 37.5643 65.723 37.4698 65.2097 37.412C64.6963 37.3543 64.1997 37.3254 63.7197 37.3254C61.073 37.3254 58.5719 37.8331 56.2163 38.8487C53.8586 39.8643 51.7863 41.3076 49.9997 43.1787V26.0254H29.9997V48.652L39.9997 43.652L46.8197 47.032C45.9486 48.4987 45.2675 50.0698 44.7763 51.7454C44.2852 53.4231 44.0397 55.1643 44.0397 56.9687C44.0397 58.6976 44.2697 60.3843 44.7297 62.0287C45.1919 63.6709 45.8719 65.2165 46.7697 66.6654H13.333ZM61.9863 68.652V58.652H51.9863V55.3187H61.9863V45.3187H65.3197V55.3187H75.3197V58.652H65.3197V68.652H61.9863ZM17.9363 22.692H61.9997L56.923 16.6654H23.013L17.9363 22.692Z" fill="url(#paint0_linear_1567_4427)"/>
</g>
<defs>
<linearGradient id="paint0_linear_1567_4427" x1="44.3263" y1="13.332" x2="44.3263" y2="68.652" gradientUnits="userSpaceOnUse">
<stop stop-color="#BD3193"/>
<stop offset="1" stop-color="#9FCC3B"/>
</linearGradient>
</defs>
</svg>
