<svg width="24" height="25" viewBox="0 0 24 25" fill="none" xmlns="http://www.w3.org/2000/svg">
<g id="material-symbols-light:category-outline-rounded">
<path id="Vector" d="M8.63753 9.49584L11.3045 5.09384C11.3912 4.95318 11.4952 4.85484 11.6165 4.79884C11.7379 4.74284 11.8659 4.71484 12.0005 4.71484C12.1352 4.71484 12.2632 4.74284 12.3845 4.79884C12.5059 4.85484 12.6099 4.95318 12.6965 5.09384L15.3635 9.49584C15.4509 9.63051 15.4945 9.77184 15.4945 9.91984C15.4945 10.0678 15.4592 10.2042 15.3885 10.3288C15.3179 10.4535 15.2232 10.5518 15.1045 10.6238C14.9859 10.6958 14.8465 10.7322 14.6865 10.7328H9.31453C9.15386 10.7328 9.0132 10.6958 8.89253 10.6218C8.77186 10.5478 8.67853 10.4502 8.61253 10.3288C8.54186 10.2088 8.50653 10.0755 8.50653 9.92884C8.50653 9.78218 8.54986 9.63784 8.63653 9.49584M17.5005 21.7328C16.4559 21.7328 15.5729 21.3722 14.8515 20.6508C14.1302 19.9295 13.7695 19.0465 13.7695 18.0018C13.7695 16.9572 14.1302 16.0742 14.8515 15.3528C15.5729 14.6315 16.4559 14.2708 17.5005 14.2708C18.5452 14.2708 19.4282 14.6315 20.1495 15.3528C20.8709 16.0742 21.2315 16.9572 21.2315 18.0018C21.2315 19.0465 20.8709 19.9295 20.1495 20.6508C19.4282 21.3722 18.5452 21.7328 17.5005 21.7328ZM3.77053 20.4238V15.5738C3.77053 15.3452 3.84753 15.1542 4.00153 15.0008C4.15686 14.8475 4.34886 14.7708 4.57753 14.7708H9.42753C9.65686 14.7708 9.8482 14.8482 10.0015 15.0028C10.1549 15.1582 10.2315 15.3505 10.2315 15.5798V20.4298C10.2315 20.6585 10.1539 20.8495 9.99853 21.0028C9.84386 21.1562 9.65186 21.2328 9.42253 21.2328H4.57253C4.34386 21.2328 4.15286 21.1552 3.99953 20.9998C3.8462 20.8452 3.77053 20.6532 3.77053 20.4238ZM17.4995 20.7328C18.2642 20.7328 18.9109 20.4688 19.4395 19.9408C19.9682 19.4128 20.2322 18.7665 20.2315 18.0018C20.2309 17.2372 19.9669 16.5908 19.4395 16.0628C18.9122 15.5348 18.2659 15.2708 17.5005 15.2708C16.7352 15.2708 16.0889 15.5348 15.5615 16.0628C15.0342 16.5908 14.7702 17.2372 14.7695 18.0018C14.7689 18.7665 15.0329 19.4128 15.5615 19.9408C16.0902 20.4688 16.7362 20.7328 17.4995 20.7328ZM4.76953 20.2328H9.23153V15.7708H4.76953V20.2328ZM9.62753 9.73284H14.3735L12.0005 5.92884L9.62753 9.73284Z" fill="black"/>
</g>
</svg>
