<svg width="80" height="80" viewBox="0 0 80 80" fill="none" xmlns="http://www.w3.org/2000/svg">
<g id="mdi:book-edit">
<path id="Vector" d="M64.633 35.8013L36.6663 63.768V73.3346H19.9997C16.2997 73.3346 13.333 70.368 13.333 66.668V13.3346C13.333 11.5665 14.0354 9.87083 15.2856 8.62059C16.5359 7.37035 18.2316 6.66797 19.9997 6.66797H23.333V30.0013L31.6663 25.0013L39.9997 30.0013V6.66797H59.9997C61.7678 6.66797 63.4635 7.37035 64.7137 8.62059C65.964 9.87083 66.6663 11.5665 66.6663 13.3346V34.3346C65.933 34.7346 65.233 35.2013 64.633 35.8013ZM43.333 66.5346V73.3346H50.133L70.5663 52.9346L63.7663 46.1013L43.333 66.5346ZM76.1663 44.9013L71.7663 40.5013C71.0997 39.8346 69.9997 39.8346 69.3663 40.5013L66.0997 43.768L72.8997 50.568L76.1663 47.3013C76.833 46.668 76.833 45.568 76.1663 44.9013Z" fill="url(#paint0_linear_1568_4443)"/>
</g>
<defs>
<linearGradient id="paint0_linear_1568_4443" x1="44.9997" y1="6.66797" x2="44.9997" y2="73.3346" gradientUnits="userSpaceOnUse">
<stop stop-color="#BD3193"/>
<stop offset="1" stop-color="#9FCC3B"/>
</linearGradient>
</defs>
</svg>
