<svg width="80" height="80" viewBox="0 0 80 80" fill="none" xmlns="http://www.w3.org/2000/svg">
<g id="tdesign:money">
<path id="Vector" d="M39.9997 41.668C36.9055 41.668 33.938 42.8971 31.7501 45.0851C29.5622 47.273 28.333 50.2404 28.333 53.3346C28.333 56.4288 29.5622 59.3963 31.7501 61.5842C33.938 63.7721 36.9055 65.0013 39.9997 65.0013C43.0939 65.0013 46.0613 63.7721 48.2493 61.5842C50.4372 59.3963 51.6663 56.4288 51.6663 53.3346C51.6663 50.2404 50.4372 47.273 48.2493 45.0851C46.0613 42.8971 43.0939 41.668 39.9997 41.668ZM34.9997 53.3346C34.9997 52.0086 35.5265 50.7368 36.4641 49.7991C37.4018 48.8614 38.6736 48.3346 39.9997 48.3346C41.3258 48.3346 42.5975 48.8614 43.5352 49.7991C44.4729 50.7368 44.9997 52.0086 44.9997 53.3346C44.9997 54.6607 44.4729 55.9325 43.5352 56.8702C42.5975 57.8078 41.3258 58.3346 39.9997 58.3346C38.6736 58.3346 37.4018 57.8078 36.4641 56.8702C35.5265 55.9325 34.9997 54.6607 34.9997 53.3346Z" fill="url(#paint0_linear_1572_7836)"/>
<path id="Vector_2" d="M58.42 17.052L47.8233 2.19531L8.86 33.322L6.7 33.2986V33.332H5V73.332H75V33.332H71.7933L65.4133 14.6686L58.42 17.052ZM64.75 33.332H31.3233L56.22 24.8453L61.2933 23.222L64.75 33.332ZM51.8333 19.2986L26.1333 28.0586L46.4867 11.7986L51.8333 19.2986ZM11.6667 60.562V46.0953C13.073 45.597 14.3504 44.7911 15.4057 43.7363C16.4609 42.6816 17.2676 41.4047 17.7667 39.9986H62.2333C62.7322 41.4052 63.5387 42.6827 64.594 43.738C65.6493 44.7932 66.9268 45.5997 68.3333 46.0986V60.5653C66.9268 61.0642 65.6493 61.8707 64.594 62.926C63.5387 63.9813 62.7322 65.2588 62.2333 66.6653H17.7733C17.2739 65.2576 16.4665 63.9791 15.4101 62.9232C14.3536 61.8673 13.0747 61.0606 11.6667 60.562Z" fill="url(#paint1_linear_1572_7836)"/>
</g>
<defs>
<linearGradient id="paint0_linear_1572_7836" x1="39.9997" y1="41.668" x2="39.9997" y2="65.0013" gradientUnits="userSpaceOnUse">
<stop stop-color="#BD3193"/>
<stop offset="1" stop-color="#9FCC3B"/>
</linearGradient>
<linearGradient id="paint1_linear_1572_7836" x1="40" y1="2.19531" x2="40" y2="73.332" gradientUnits="userSpaceOnUse">
<stop stop-color="#BD3193"/>
<stop offset="1" stop-color="#9FCC3B"/>
</linearGradient>
</defs>
</svg>
